# xmcd CD database file
#
# Track frame offsets:
#	150
#	12895
#	25968
#	43198
#	55450
#	70153
#	88128
#	102395
#	116600
#	131788
#	147023
#	162193
#
# Disc length: 2382 seconds
#
# Revision: 3
# Processed by: cddbd v1.5.2PL0 Copyright (c) Steve Scherf et al.
# Submitted via: CDex 1.51
#
DISCID=a8094c0c
DTITLE=Dimitris Mitropanos - Laikes Stigmes
DYEAR=1983
DGENRE=Greece
TTITLE0=S' Agapo San Amartia
TTITLE1=Den Exo Kairo
TTITLE2=Dromoi Skonismeno
TTITLE3=Thartho Mesanuxta
TTITLE4=Talio Ton Kosmo Ton Pikro
TTITLE5=Tha Me Breis
TTITLE6=Den Exo Diavatirio
TTITLE7=Phtoxomaxalas
TTITLE8=Se Thymamai
TTITLE9=Paixe Mou Spyro
TTITLE10=Ti Tragoudi Na Mou Grapseis
TTITLE11=Pos Na Phonaxo Dynata
EXTD=YEAR: 1983
EXTT0=
EXTT1=
EXTT2=
EXTT3=
EXTT4=
EXTT5=
EXTT6=
EXTT7=
EXTT8=
EXTT9=
EXTT10=
EXTT11=
PLAYORDER=
